<?xml version="1.0" standalone="no"?>
<!DOCTYPE svg PUBLIC "-//W3C//DTD SVG 1.1//EN" "http://www.w3.org/Graphics/SVG/1.1/DTD/svg11.dtd" >
<svg>
<metadata>
Created by FontForge 20090914 at Fri Nov 18 21:07:55 2016
 By www-data
2000 Iconian Fonts - www.iconian.com
</metadata>
<defs>
<font id="BamfItalic" horiz-adv-x="388" >
  <font-face 
    font-family="Bamf Italic"
    font-weight="400"
    font-style="italic"
    font-stretch="normal"
    units-per-em="500"
    panose-1="0 0 0 0 0 0 0 0 0 0"
    ascent="400"
    descent="-100"
    x-height="400"
    cap-height="400"
    bbox="-30 -95 1001 468"
    underline-thickness="50"
    underline-position="-75"
    slope="-12"
    unicode-range="U+0020-U+007D"
  />
<missing-glyph horiz-adv-x="500" 
 />
    <glyph glyph-name=".notdef" horiz-adv-x="500" 
 />
    <glyph glyph-name="space" unicode=" " horiz-adv-x="220" 
 />
    <glyph glyph-name="space" unicode="&#xa0;" horiz-adv-x="220" 
 />
    <glyph glyph-name="exclam" unicode="!" horiz-adv-x="162" 
d="M155 400l-94 -260h110l94 260h-110zM49 96l-35 -96h100l35 96h-100z" />
    <glyph glyph-name="quotedbl" unicode="&#x22;" horiz-adv-x="294" 
d="M297 400l-35 -97c-8 -38 -8.33301 -63 -1 -75h38c19.333 12 40.333 37 63 75l35 97h-100zM155 400l-35 -97c-8 -38 -8.33301 -63 -1 -75h38c19.333 12 40.333 37 63 75l35 97h-100z" />
    <glyph glyph-name="dollar" unicode="$" horiz-adv-x="398" 
d="M52 125c-8.66699 -24 -10.332 -44 -4.99902 -60s15 -28.833 29 -38.5s31 -16.667 51 -21s40.667 -6.5 62 -6.5c20.667 0 42.5 2.33301 65.5 7s45.167 12 66.5 22s40.5 23 57.5 39s29.5 35.333 37.5 58c10 26.667 10.333 48.334 1 65.001
c-8.66699 16.667 -22.667 30 -42 40c-18.667 10 -40 17.333 -64 22l-33 8l-31 8c-3.33301 0.666992 -5.33301 1.83398 -6 3.50098s-0.833984 3.83398 -0.500977 6.50098s1 5.16699 2 7.5s1.83301 4.83301 2.5 7.5c5.33301 13.333 13.333 22.333 24 27s22.667 7 36 7
c14.667 0 26 -2.33301 34 -7s13.333 -15.334 16 -32.001h111l2 9c5.33301 14.667 7.33301 27.5 6 38.5s-5 20.333 -11 28s-14 14 -24 19s-21 8.83301 -33 11.5s-24.333 4.5 -37 5.5s-24.667 1.5 -36 1.5c-20 0 -41 -1.66699 -63 -5s-43.167 -9.16602 -63.5 -17.499
s-38.666 -19.833 -54.999 -34.5s-28.5 -33.334 -36.5 -56.001c-6.66699 -18 -8.83398 -33 -6.50098 -45s7.66602 -22.333 15.999 -31s18.666 -15.667 30.999 -21s25.166 -10 38.499 -14c20 -4.66699 37.667 -9.66699 53 -15c16.667 -6 29.334 -12 38.001 -18
c10 -6.66699 12.667 -16.334 8 -29.001c-2.66699 -6.66699 -7 -12.334 -13 -17.001s-12.667 -8.5 -20 -11.5s-14.666 -5.16699 -21.999 -6.5s-14 -2 -20 -2c-18 0 -31.667 4.33301 -41 13s-16.666 20 -21.999 34h-103zM330.002 468l-195 -535h52l195 535h-52z" />
    <glyph glyph-name="ampersand" unicode="&#x26;" 
d="M208 79c-10 0 -17.501 0.500977 -22.501 1.50098s-8.83301 2.5 -11.5 4.5s-4.33398 4.16699 -5.00098 6.5s-1.33398 5.16602 -2.00098 8.49902c-1.33301 3.33301 -1.33301 7 0 11l3 8c4.66699 12 11.334 21.167 20.001 27.5s18.334 11.166 29.001 14.499
c11.333 3.33301 19 5.33301 23 6c2.66699 -0.666992 8 -2.66699 16 -6c4 -2 7.83301 -4.16699 11.5 -6.5s6.5 -5.16602 8.5 -8.49902c4 -6.66699 4 -15.667 0 -27c0 -2.66699 -2.16699 -7.16699 -6.5 -13.5s-9.5 -11.5 -15.5 -15.5c-4 -3.33301 -9.16699 -6 -15.5 -8
s-17.166 -3 -32.499 -3zM183.999 -0.999023l52.999 1c33.333 0 64.333 9.66699 93 29c29.333 19.333 49.333 44.666 60 75.999c18 49.333 6.33301 84.333 -35 105c-9.33301 6 -17.666 10.333 -24.999 13s-13.833 4.66699 -19.5 6s-10.667 2.16602 -15 2.49902
s-8.16602 0.833008 -11.499 1.5h-8h-10c-4 0 -10 2 -18 6c-8.66699 2 -15 6.66699 -19 14c-4 6.66699 -4 16 0 28c0.666992 1.33301 1.83398 3.33301 3.50098 6s4.16699 6.33398 7.5 11.001c1.33301 2 2.83301 4 4.5 6s3.83398 3.83301 6.50098 5.5
s5.83398 3.33398 9.50098 5.00098s8.5 3.5 14.5 5.5h44l44 -1l29 81h-132c-14.667 0 -28.834 -3.16699 -42.501 -9.5s-26.334 -14.333 -38.001 -24s-21.834 -20.667 -30.501 -33s-15.334 -24.166 -20.001 -35.499c-4.66699 -13.333 -6.5 -23.833 -5.5 -31.5
s2.83301 -14.834 5.5 -21.501s7 -12.667 13 -18s11.667 -11 17 -17c-55.333 -20 -92.333 -55 -111 -105c-11.333 -32 -10 -57.333 4 -76c14.667 -19.333 39 -29 73 -29z" />
    <glyph glyph-name="quotesingle" unicode="'" horiz-adv-x="152" 
d="M155 400l-35 -97c-8 -38 -8.33301 -63 -1 -75h38c19.333 12 40.333 37 63 75l35 97h-100z" />
    <glyph glyph-name="parenleft" unicode="(" horiz-adv-x="440" 
d="M545 400l-145 -400h-20l145 400h20zM465 400l-145 -400h-30l145 400h30zM385 400l-145 -400h-40l145 400h40zM305 400l-145 -400h-50l145 400h50zM225 400l-145 -400h-70l145 400h70z" />
    <glyph glyph-name="parenright" unicode=")" horiz-adv-x="441" 
d="M155 400l-145 -400h20l145 400h-20zM235 400l-145 -400h30l145 400h-30zM315 400l-145 -400h40l145 400h-40zM395 400l-145 -400h50l145 400h-50zM475 400l-145 -400h70l145 400h-70z" />
    <glyph glyph-name="asterisk" unicode="*" horiz-adv-x="186" 
d="M291 348l-47 -22l31 -20l-32 -32l-30 21l-15 -41h-40l15 41l-45 -21l-8 32l45 20l-30 22l32 31l29 -21l15 42h40l-15 -42l46 21z" />
    <glyph glyph-name="plus" unicode="+" horiz-adv-x="228" 
d="M126 166l-19 -54h37h31l19 54h54l14 37l11 31h-54l20 56h-68l-20 -56h-56l-25 -68h56z" />
    <glyph glyph-name="comma" unicode="," horiz-adv-x="152" 
d="M46 100l-36 -100l40 -1l-34 -94c40.667 26 72 57.667 94 95l36 100h-100z" />
    <glyph glyph-name="minus" unicode="-" horiz-adv-x="228" 
d="M116 166h132l14 37l11 31h-90h-88l-25 -68h46z" />
    <glyph glyph-name="period" unicode="." horiz-adv-x="152" 
d="M46 100l-36 -100h100l36 100h-100z" />
    <glyph glyph-name="slash" unicode="/" horiz-adv-x="400" 
d="M387 395l-377 -395h112l383 400h-112z" />
    <glyph glyph-name="zero" unicode="0" horiz-adv-x="416" 
d="M350 400l-20.0029 -0.000976562c-12 0 -30 -2.33301 -54 -7c-12 -2.66699 -23.167 -5.83398 -33.5 -9.50098s-20.833 -8.16699 -31.5 -13.5c-19.333 -10.667 -36.666 -23.334 -51.999 -38.001s-30 -33.667 -44 -57c-8 -15.333 -15.667 -31.333 -23 -48
s-13.333 -32.667 -18 -48c-6 -16 -10.667 -34 -14 -54c-1.33301 -12.667 -2 -23.834 -2 -33.501s1 -18.167 3 -25.5c2.66699 -14.667 11 -27.334 25 -38.001c14 -11.333 31 -18.666 51 -21.999c10.667 -2.66699 20.5 -4.5 29.5 -5.5s16.833 -1.5 23.5 -1.5h16
c6.66699 0 14.667 0.5 24 1.5s20.333 2.83301 33 5.5c23.333 4 46 11.333 68 22c10.667 5.33301 20.167 11 28.5 17s16.333 12.833 24 20.5s15 16.334 22 26.001s14.167 20.834 21.5 33.501c10.667 20.667 19.334 38.667 26.001 54s12 31.333 16 48c2.66699 8 5 16 7 24
l6 24c2.66699 23.333 2 42.333 -2 57s-12.667 27.334 -26 38.001c-6.66699 5.33301 -14.167 9.83301 -22.5 13.5s-17.166 6.83398 -26.499 9.50098c-22 4.66699 -40.333 7 -55 7zM310.997 321.999c3.33301 0 7.16797 -0.501953 11.501 -1.50195s8.66602 -2.33301 12.999 -4
s8.33301 -3.66699 12 -6s6.83398 -5.16602 9.50098 -8.49902c2.66699 -4.66699 4.66699 -10.667 6 -18s1.66602 -17.666 0.999023 -30.999c-4.66699 -14 -8.33398 -25.333 -11.001 -34s-5 -15.834 -7 -21.501l-5 -14c-1.33301 -3.66699 -3 -7.16699 -5 -10.5
c-3.33301 -7.33301 -7 -14.833 -11 -22.5s-9 -15.834 -15 -24.501c-12.667 -15.333 -26.667 -27.166 -42 -35.499s-29.333 -12.5 -42 -12.5h-8c-12.667 0 -23.167 4.16699 -31.5 12.5s-13.166 20.166 -14.499 35.499c-1.33301 12 -0.833008 23 1.5 33
s5.16602 19.667 8.49902 29c2 4.66699 5 12.334 9 23.001s9.33301 24 16 40l12.5 18c3.66699 5.33301 7 9.83301 10 13.5s6.16699 7 9.5 10s6.66602 5.83301 9.99902 8.5c8 5.33301 15.333 9.33301 22 12s13.834 4.83398 21.501 6.50098s13.834 2.5 18.501 2.5z" />
    <glyph glyph-name="one" unicode="1" horiz-adv-x="162" 
d="M155 400l-145 -400h110l145 400h-110z" />
    <glyph glyph-name="two" unicode="2" horiz-adv-x="398" 
d="M400 79h-184.001h-60l13 36c4.66699 12.667 14 22.334 28 29.001c13.333 6 30.333 12 51 18c9.33301 2.66699 19.333 5.16699 30 7.5l33 7.5c16.667 4 33.167 8.66699 49.5 14s31.833 12.333 46.5 21s27.667 19 39 31s20.333 27 27 45
c8 22.667 9.16699 41.334 3.5 56.001s-15.667 26.167 -30 34.5s-31.333 14.166 -51 17.499s-39.167 5 -58.5 5c-18 0 -37.667 -1.16699 -59 -3.5s-41.833 -7.33301 -61.5 -15s-37.667 -18.334 -54 -32.001s-28.5 -31.5 -36.5 -53.5l-4 -9h111
c14 16.667 26.667 27.334 38 32.001c10.667 4.66699 24 7 40 7c6 0 11.667 -0.5 17 -1.5s9.66602 -2.83301 12.999 -5.5s5.5 -6.16699 6.5 -10.5s0.166992 -9.83301 -2.5 -16.5c-1.33301 -4.66699 -3.16602 -9.66699 -5.49902 -15s-7.16602 -8.66602 -14.499 -9.99902
c-11.333 -2.66699 -23.5 -5.33398 -36.5 -8.00098l-40.5 -8c-26.667 -4.66699 -53 -12 -79 -22s-49.667 -23.333 -71 -40c-20.667 -16.667 -36 -38.334 -46 -65.001l-46 -126h181h183z" />
    <glyph glyph-name="three" unicode="3" 
d="M155 400l-30.0059 -80.998l193 1l2.5 -1c1.66699 -0.666992 3.5 -1.33398 5.5 -2.00098s4 -1.66699 6 -3s3.33301 -2.66602 4 -3.99902c0.666992 -2 1.16699 -4 1.5 -6s0.5 -4 0.5 -6c0.666992 -4.66699 0.833984 -8.33398 0.500977 -11.001s-0.833008 -4.66699 -1.5 -6
c-4 -12 -10.667 -21.333 -20 -28s-19.5 -11.667 -30.5 -15s-22 -5.33301 -33 -6s-20.5 -1 -28.5 -1l-8 -22l-15 -40c8.66699 0 18.167 -0.5 28.5 -1.5s19.833 -3.16699 28.5 -6.5s15 -8.33301 19 -15s4 -15.667 0 -27c0 -2.66699 -2.16699 -7.16699 -6.5 -13.5
s-9.5 -11.5 -15.5 -15.5c-2.66699 -2.66699 -6 -4.66699 -10 -6s-7.5 -2.33301 -10.5 -3l-4.5 -1l-191 -1l-30 -79h227c33.333 0 64.333 9.66699 93 29c29.333 19.333 49.333 44.666 60 75.999c18 49.333 6.33301 84.333 -35 105l30 17
c9.33301 5.33301 17.833 11.333 25.5 18s14.834 13.834 21.501 21.501s12.334 18.167 17.001 31.5c4.66699 11.333 6.83398 23.166 6.50098 35.499s-2.66602 23.333 -6.99902 33s-11.166 17.667 -20.499 24s-21.333 9.5 -36 9.5h-237z" />
    <glyph glyph-name="four" unicode="4" horiz-adv-x="402" 
d="M155 400l-86 -236h112l43 116l43 120h-112zM505 400h-112l-59 -164h-18h-88l-13 -36l-14 -36h106l-59 -164h112z" />
    <glyph glyph-name="five" unicode="5" horiz-adv-x="398" 
d="M488 321l-183.999 0.00195312h-60l-14 -36c-4 -13.333 -1.33301 -23 8 -29c4.66699 -3.33301 10 -6.5 16 -9.5s13 -5.83301 21 -8.5l25 -8c8.66699 -2.66699 18 -5.33398 28 -8.00098c13.333 -4 26.333 -8.66699 39 -14s23 -12.333 31 -21s13.333 -19 16 -31
s1 -26.667 -5 -44c-8.66699 -23.333 -21.167 -42.333 -37.5 -57s-34.833 -26.334 -55.5 -35.001s-42 -14.5 -64 -17.5s-42.667 -4.16699 -62 -3.5c-12 -0.666992 -24.5 -0.5 -37.5 0.5s-25.333 2.83301 -37 5.5s-22.5 6.5 -32.5 11.5s-17.833 11.333 -23.5 19
s-9.16699 17 -10.5 28s0.666992 24.167 6 39.5l3 9h111c1.33301 -18 6.33301 -29 15 -33c6.66699 -4 18 -6 34 -6c6 0 12 0.333008 18 1s11.667 2.33398 17 5.00098s10.166 6.16699 14.499 10.5s7.83301 10.166 10.5 17.499c0.666992 2 1.5 4.33301 2.5 7
s1.66699 5.16699 2 7.5s0 4.5 -1 6.5s-2.83301 3.33301 -5.5 4c-10 2.66699 -20.5 5.16699 -31.5 7.5l-34.5 7.5c-24 5.33301 -45 13 -63 23c-19.333 10 -33 23 -41 39c-9.33301 16.667 -9 38.667 1 66l46 126h181h183z" />
    <glyph glyph-name="six" unicode="6" 
d="M208 79c-10 0 -17.499 0.5 -22.499 1.5s-8.83301 2.5 -11.5 4.5s-4.33398 4.16699 -5.00098 6.5s-1.33398 5.16602 -2.00098 8.49902c-1.33301 3.33301 -1.33301 7 0 11l3 8l12 34c4 10.667 13.333 15.667 28 15c6.66699 -0.666992 12.667 -1 18 -1h14
c2.66699 -0.666992 8 -2.66699 16 -6c4 -2 7.83301 -4.16699 11.5 -6.5s6.5 -5.16602 8.5 -8.49902c4 -6.66699 4 -15.667 0 -27c0 -2.66699 -2.16699 -7.16699 -6.5 -13.5s-9.5 -11.5 -15.5 -15.5c-4 -3.33301 -9.16699 -6 -15.5 -8s-17.166 -3 -32.499 -3zM184.001 -1
l52.998 0.999023c33.333 0 64.333 9.66699 93 29c29.333 19.333 49.333 44.666 60 75.999c18 49.333 6.33301 84.333 -35 105c-9.33301 6 -17.666 10.333 -24.999 13s-13.833 4.66699 -19.5 6s-10.667 2.16602 -15 2.49902s-8.16602 0.833008 -11.499 1.5h-8h-10
c-4 0 -10 2 -18 6c-8.66699 2 -15 6.66699 -19 14c-4 6.66699 -4 16 0 28c0.666992 1.33301 1.83398 3.33301 3.50098 6s4.16699 6.33398 7.5 11.001c1.33301 2 2.83301 4 4.5 6s3.83398 3.83301 6.50098 5.5s5.83398 3.33398 9.50098 5.00098s8.5 3.5 14.5 5.5h44l44 -1
l29 81h-132c-14.667 0 -28.834 -3.16699 -42.501 -9.5s-26.334 -14.333 -38.001 -24s-21.834 -20.667 -30.501 -33s-15.334 -24.166 -20.001 -35.499c-3.33301 -6 -6.16602 -11.5 -8.49902 -16.5l-7 -15l-7.5 -16.5l-9 -21c-2 -5.33301 -4.5 -11.333 -7.5 -18
s-5.83301 -14 -8.5 -22l-18 -44.5l-15 -39.5c-11.333 -32 -10 -57.333 4 -76c14.667 -19.333 39 -29 73 -29z" />
    <glyph glyph-name="seven" unicode="7" horiz-adv-x="382" 
d="M487 400h-237h-95l-29 -80h140h82l-339 -319h116l334 320z" />
    <glyph glyph-name="eight" unicode="8" 
d="M208 79c-10 0 -17.501 0.500977 -22.501 1.50098s-8.83301 2.5 -11.5 4.5s-4.33398 4.16699 -5.00098 6.5s-1.33398 5.16602 -2.00098 8.49902c-1.33301 3.33301 -1.33301 7 0 11l3 8c4.66699 12 11.334 21.167 20.001 27.5s18.334 11.166 29.001 14.499
c11.333 3.33301 19 5.33301 23 6c2.66699 -0.666992 8 -2.66699 16 -6c4 -2 7.83301 -4.16699 11.5 -6.5s6.5 -5.16602 8.5 -8.49902c4 -6.66699 4 -15.667 0 -27c0 -2.66699 -2.16699 -7.16699 -6.5 -13.5s-9.5 -11.5 -15.5 -15.5c-4 -3.33301 -9.16699 -6 -15.5 -8
s-17.166 -3 -32.499 -3zM183.999 -0.999023l52.999 1.00098c33.333 0 64.333 9.66699 93 29c29.333 19.333 49.333 44.666 60 75.999c18 49.333 6.33301 84.333 -35 105l30 17c9.33301 5.33301 17.833 11.333 25.5 18s14.834 13.834 21.501 21.501
s12.334 18.167 17.001 31.5c4.66699 11.333 6.83398 23.166 6.50098 35.499s-2.66602 23.333 -6.99902 33s-11.166 17.667 -20.499 24s-21.333 9.5 -36 9.5h-132c-14.667 0 -28.834 -3.16699 -42.501 -9.5s-26.334 -14.333 -38.001 -24s-21.834 -20.667 -30.501 -33
s-15.334 -24.166 -20.001 -35.499c-4.66699 -13.333 -6.5 -23.833 -5.5 -31.5s2.83301 -14.834 5.5 -21.501s7 -12.667 13 -18s11.667 -11 17 -17c-55.333 -20 -92.333 -55 -111 -105c-11.333 -32 -10 -57.333 4 -76c14.667 -19.333 39 -29 73 -29zM265.998 233.002
c-4 0 -10 2 -18 6c-8.66699 2 -15 6.66699 -19 14c-4 6.66699 -4 16 0 28c0.666992 0.666992 2.83398 4.16699 6.50098 10.5s9.16699 12.5 16.5 18.5c3.33301 3.33301 8 5.83301 14 7.5s16.333 2.5 31 2.5c11.333 0 19.5 -0.5 24.5 -1.5s8.5 -2.5 10.5 -4.5
s3.16699 -4.33301 3.5 -7s1.16602 -5.66699 2.49902 -9c0.666992 -4.66699 0.833984 -8.33398 0.500977 -11.001s-0.833008 -4.66699 -1.5 -6c-4.66699 -12 -11.334 -21.167 -20.001 -27.5s-18.667 -11.166 -30 -14.499c-11.333 -4 -18.333 -6 -21 -6z" />
    <glyph glyph-name="nine" unicode="9" 
d="M299 320c10 -0.666992 17.333 -1.66797 22 -3.00098s8.16699 -2.83301 10.5 -4.5s3.83301 -3.66699 4.5 -6s2 -4.83301 4 -7.5c1.33301 -4 1.33301 -7.66699 0 -11l-3 -8l-13 -34c-4 -10.667 -13 -15.667 -27 -15c-7.33301 0 -13.666 0.166992 -18.999 0.5
s-9.66602 0.5 -12.999 0.5c-4 0 -10 2 -18 6c-7.33301 2 -13.666 6.66699 -18.999 14c-4 6.66699 -3.66699 16 1 28c-0.666992 2.66699 1.16602 7.16699 5.49902 13.5s9.83301 11.5 16.5 15.5c2 1.33301 4.16699 2.5 6.5 3.5s5.16602 2 8.49902 3
s7.66602 1.83301 12.999 2.5s12 1.33398 20 2.00098zM322 399.999l-52.001 -0.999023c-34 0 -65.333 -10 -94 -30c-28.667 -19.333 -48.334 -44.333 -59.001 -75c-18.667 -50.667 -7 -85.667 35 -105c9.33301 -6.66699 17.5 -11.334 24.5 -14.001
s13.5 -4.33398 19.5 -5.00098c5.33301 -1.33301 10.333 -2.33301 15 -3s8.33398 -1 11.001 -1h8h11c3.33301 -0.666992 9 -2.66699 17 -6c4 -2 7.66699 -4.16699 11 -6.5s6.33301 -5.16602 9 -8.49902c4 -6.66699 4 -15.667 0 -27
c-0.666992 -1.33301 -1.83398 -3.33301 -3.50098 -6s-4.16699 -6.33398 -7.5 -11.001c-2.66699 -2.66699 -4.83398 -5 -6.50098 -7s-3.66699 -4 -6 -6s-5.33301 -3.66699 -9 -5s-8.16699 -2.66602 -13.5 -3.99902h-44l-44 1l-30 -81h132c14.667 0 28.834 3 42.501 9
s26.334 13.833 38.001 23.5s22 20.5 31 32.5s15.833 24.333 20.5 37c2.66699 6.66699 5.66699 13.5 9 20.5s6.33301 13.833 9 20.5c3.33301 6.66699 7.33301 15.5 12 26.5l17 40.5l18.5 45c5.66699 14 10.834 27.333 15.501 40c10.667 30 9 55 -5 75
c-14.667 20 -38.667 30 -72 30z" />
    <glyph glyph-name="colon" unicode=":" horiz-adv-x="152" 
d="M126 320l-36 -100h100l36 100h-100zM46 100l-36 -100h100l36 100h-100z" />
    <glyph glyph-name="semicolon" unicode=";" horiz-adv-x="152" 
d="M126 320l-36 -100h100l36 100h-100zM46 100l-36 -100l40 -1l-34 -94c40.667 26 72 57.667 94 95l36 100h-100z" />
    <glyph glyph-name="less" unicode="&#x3c;" horiz-adv-x="304" 
d="M86 197l-1 5l210 198h136l-204 -198l59 -202h-136z" />
    <glyph glyph-name="equal" unicode="=" horiz-adv-x="228" 
d="M140 232h132l14 37l11 31h-90h-88l-25 -68h46zM93 102h132l13 37l12 31h-90h-88l-25 -68h46z" />
    <glyph glyph-name="greater" unicode="&#x3e;" horiz-adv-x="304" 
d="M354 197l-206 -197h-136l205 202l-60 198h136l66 -198z" />
    <glyph glyph-name="question" unicode="?" horiz-adv-x="398" 
d="M174 131l-119.997 -0.00195312c4.66699 12 10.834 22.833 18.501 32.5s16.5 18.5 26.5 26.5s20.833 15.333 32.5 22s23.834 12.667 36.501 18c13.333 4.66699 26.666 8.83398 39.999 12.501s26.666 6.83398 39.999 9.50098l40.5 8
c13 2.66699 25.167 5.33398 36.5 8.00098c7.33301 1.33301 12.166 4.66602 14.499 9.99902s4.16602 10.333 5.49902 15c2.66699 6.66699 3.5 12.167 2.5 16.5s-3.16699 7.83301 -6.5 10.5s-7.66602 4.5 -12.999 5.5s-11 1.5 -17 1.5c-16 0 -29.333 -2.33301 -40 -7
c-11.333 -4.66699 -24 -15.334 -38 -32.001h-111l4 9c8 22 20.167 39.833 36.5 53.5s34.333 24.334 54 32.001s40.167 12.667 61.5 15s41 3.5 59 3.5c19.333 0 38.833 -1.66699 58.5 -5s36.667 -9.16602 51 -17.499s24.333 -19.833 30 -34.5s4.5 -33.334 -3.5 -56.001
c-6.66699 -18 -15.667 -33 -27 -45s-24.333 -22.333 -39 -31s-30.167 -15.667 -46.5 -21s-32.833 -10 -49.5 -14c-10.667 -2.66699 -21.334 -5.16699 -32.001 -7.5s-21 -4.83301 -31 -7.5s-19.333 -5.66699 -28 -9s-16.334 -6.5 -23.001 -9.5s-12 -5.66699 -16 -8
s-6.33301 -3.83301 -7 -4.5zM49.0029 95.998l-35 -96h100l35 96h-100z" />
    <glyph glyph-name="A" unicode="A" horiz-adv-x="838" 
d="M155 400l-145 -400h20l145 400h-20zM235 400l-145 -400h30l145 400h-30zM315 400l-145 -400h40l145 400h-40zM395 400l-145 -400h50l145 400h-50zM475 400l-145 -400h70l145 400h-70zM766 400h-56l-294 -400h118l170 229l-5 -112h-74l-11 -30l-14 -40h96l-2 -47h128v400
h-56z" />
    <glyph glyph-name="B" unicode="B" horiz-adv-x="830" 
d="M155 400l-145 -400h20l145 400h-20zM235 400l-145 -400h30l145 400h-30zM315 400l-145 -400h40l145 400h-40zM395 400l-145 -400h50l145 400h-50zM475 400l-145 -400h70l145 400h-70zM595 400l-145.002 -400.001h225c33.333 0 64.333 9.66699 93 29
c29.333 19.333 49.333 44.666 60 75.999c18 49.333 6.33301 84.333 -35 105l30 17c9.33301 5.33301 17.833 11.333 25.5 18s14.834 13.834 21.501 21.501s12.334 18.167 17.001 31.5c4.66699 11.333 7 23 7 35c0 12.667 -2.33301 23.834 -7 33.501s-11.5 17.667 -20.5 24
s-20.833 9.5 -35.5 9.5h-236zM660.998 202.999l-12.9971 -34.002c2 0 5 -0.166992 9 -0.5s8.33301 -0.833008 13 -1.5s9.5 -1.5 14.5 -2.5s9.5 -2.16699 13.5 -3.5c8.66699 -3.33301 15.334 -8.16602 20.001 -14.499s4.66699 -15.5 0 -27.5
c-0.666992 -2.66699 -2.83398 -6.83398 -6.50098 -12.501s-8.83398 -11.167 -15.501 -16.5c-2.66699 -2.66699 -6 -4.66699 -10 -6s-7.5 -2.33301 -10.5 -3l-4.5 -1h-82l87 240h82c0 -0.666992 1.66699 -1.5 5 -2.5s6.33301 -2.16699 9 -3.5
c2.66699 -2 4.16699 -4.33301 4.5 -7s1.16602 -5.33398 2.49902 -8.00098c1.33301 -4 1.5 -7.66699 0.5 -11s-1.83301 -5.66602 -2.5 -6.99902c-4.66699 -12 -11.334 -21.167 -20.001 -27.5s-18.667 -11.166 -30 -14.499c-5.33301 -2 -11 -3.66699 -17 -5
s-11.5 -2.16602 -16.5 -2.49902s-9.5 -0.5 -13.5 -0.5h-9z" />
    <glyph glyph-name="C" unicode="C" horiz-adv-x="844" 
d="M155 400l-145 -400h20l145 400h-20zM235 400l-145 -400h30l145 400h-30zM315 400l-145 -400h40l145 400h-40zM395 400l-145 -400h50l145 400h-50zM475 400l-145 -400h70l145 400h-70zM784 398l-20.0029 -0.00292969c-12 0 -30.333 -2.33301 -55 -7
c-11.333 -2.66699 -22.166 -5.83398 -32.499 -9.50098s-20.833 -8.16699 -31.5 -13.5c-20 -10.667 -37.5 -23.334 -52.5 -38.001s-29.833 -33.667 -44.5 -57c-8.66699 -15.333 -16.5 -31.333 -23.5 -48s-12.833 -32.667 -17.5 -48c-6 -16 -10.333 -34 -13 -54
c-3.33301 -25.333 -3.33301 -45 0 -59c2.66699 -14.667 11 -27.334 25 -38.001c14 -10 31.333 -17.333 52 -22s41.667 -7 63 -7h-6c22 0 45 2.33301 69 7s46.333 12 67 22c21.333 10.667 39 23.334 53 38.001c6.66699 7.33301 13.667 15.833 21 25.5s15 20.834 23 33.501
l7 19h-113l-12 -18c-12.667 -15.333 -26.667 -27.166 -42 -35.499s-29.333 -12.5 -42 -12.5h-8c-12.667 0 -23.167 4.16699 -31.5 12.5s-13.166 20.166 -14.499 35.499c-0.666992 12 0 23 2 33s4.66699 19.667 8 29c2 4.66699 5 12.334 9 23.001s9.33301 24 16 40l12.5 18
c3.66699 5.33301 7.16699 9.83301 10.5 13.5l9.5 10c3 3 6.5 5.83301 10.5 8.5c7.33301 5.33301 14.333 9.33301 21 12s13.834 4.83398 21.501 6.50098s13.834 2.5 18.501 2.5c7.33301 0 15.666 -1.66699 24.999 -5s16.333 -8.33301 21 -15
c2.66699 -4.66699 4.66699 -10.667 6 -18s2 -17.333 2 -30h110l7 21c2.66699 23.333 2 42.333 -2 57s-12.333 27.334 -25 38.001c-6.66699 5.33301 -14.167 9.83301 -22.5 13.5s-17.5 6.83398 -27.5 9.50098c-21.333 4.66699 -39.333 7 -54 7z" />
    <glyph glyph-name="D" unicode="D" horiz-adv-x="824" 
d="M155 400l-145 -400h20l145 400h-20zM235 400l-145 -400h30l145 400h-30zM315 400l-145 -400h40l145 400h-40zM395 400l-145 -400h50l145 400h-50zM475 400l-145 -400h70l145 400h-70zM591 400l-145 -400h206c38.667 3.33301 74.334 16.333 107.001 39
c33.333 22.667 54.666 44.667 63.999 66l32 87l22 62l13 34c4 24 1.33301 45.667 -8 65c-8.66699 19.333 -21 32 -37 38s-36 9 -60 9h-194zM642 237l30.0039 82.999h82c0 -0.666992 1.66699 -1.5 5 -2.5s6.33301 -2.33301 9 -4s4.16699 -4.16699 4.5 -7.5
s0.833008 -8.66602 1.5 -15.999c-0.666992 -4.66699 -1.16699 -9 -1.5 -13s-0.833008 -8 -1.5 -12l-5 -15.5c-2.66699 -8.33301 -6.66699 -19.833 -12 -34.5c-8.66699 -25.333 -15.834 -45.333 -21.501 -60s-9.83398 -23.667 -12.501 -27s-4.83398 -6.5 -6.50098 -9.5
s-2.83398 -5.16699 -3.50098 -6.5c-2 -2 -3.83301 -4 -5.5 -6s-3.16699 -3.66699 -4.5 -5l-13.5 -11c-5 -4 -11.5 -7.33301 -19.5 -10h-82z" />
    <glyph glyph-name="E" unicode="E" horiz-adv-x="822" 
d="M155 400l-145 -400h20l145 400h-20zM235 400l-145 -400h30l145 400h-30zM315 400l-145 -400h40l145 400h-40zM395 400l-145 -400h50l145 400h-50zM475 400l-145 -400h70l145 400h-70zM595 400l-145 -400h227h107l29 80h-142h-82l87 240h82h140l29 80h-95h-237zM679 235
l-25 -70h96h72l25 70h-82h-86z" />
    <glyph glyph-name="F" unicode="F" horiz-adv-x="822" 
d="M155 400l-145 -400h20l145 400h-20zM235 400l-145 -400h30l145 400h-30zM315 400l-145 -400h40l145 400h-40zM395 400l-145 -400h50l145 400h-50zM475 400l-145 -400h70l145 400h-70zM595 400l-145 -400h110l29 80l87 240h82h140l29 80h-95h-237zM679 235l-25 -70h96h72
l25 70h-82h-86z" />
    <glyph glyph-name="G" unicode="G" horiz-adv-x="850" 
d="M155 400l-145 -400h20l145 400h-20zM235 400l-145 -400h30l145 400h-30zM315 400l-145 -400h40l145 400h-40zM395 400l-145 -400h50l145 400h-50zM475 400l-145 -400h70l145 400h-70zM788 400h-19.999c-12 0 -30 -2.33301 -54 -7
c-12 -2.66699 -23.167 -5.83398 -33.5 -9.50098s-20.833 -8.16699 -31.5 -13.5c-19.333 -10.667 -36.666 -23.334 -51.999 -38.001s-30 -33.667 -44 -57c-8.66699 -15.333 -16.5 -31.333 -23.5 -48s-12.833 -32.667 -17.5 -48c-6 -16 -10.667 -34 -14 -54
c-1.33301 -12.667 -2 -23.834 -2 -33.501s1 -18.167 3 -25.5c2.66699 -14.667 11 -27.334 25 -38.001c14 -10 31.167 -17.333 51.5 -22s41.166 -7 62.499 -7h-6c22 0 45.167 2.33301 69.5 7s47 12.167 68 22.5s38.5 22.833 52.5 37.5c6.66699 7.33301 13.667 15.833 21 25.5
s14.666 20.834 21.999 33.501l13 34c1.33301 16 -4 28.333 -16 37l-18 10.5c-5.33301 3 -11 5.16699 -17 6.5h-102l-23 -64h28c9.33301 -0.666992 16.166 -2 20.499 -4s7 -4.5 8 -7.5s0.5 -6.66699 -1.5 -11s-4.33301 -8.83301 -7 -13.5c-8 -11.333 -20.333 -20 -37 -26
c-16.667 -6.66699 -33 -9.66699 -49 -9h-8c-12.667 0 -23.167 4.16699 -31.5 12.5s-13.166 20.166 -14.499 35.499c-1.33301 12 -0.833008 23 1.5 33s5.16602 19.667 8.49902 29c2 4.66699 5 12.334 9 23.001s9.33301 24 16 40l12.5 18c3.66699 5.33301 7 9.83301 10 13.5
s6.16699 7 9.5 10s6.66602 5.83301 9.99902 8.5c8 5.33301 15.333 9.33301 22 12s13.834 4.83398 21.501 6.50098s13.834 2.5 18.501 2.5c7.33301 0 15.666 -1.66699 24.999 -5s16.333 -8.33301 21 -15c2.66699 -4.66699 4.66699 -10.667 6 -18s2 -17.333 2 -30h110l7 21
c2.66699 23.333 2 42.333 -2 57s-12.667 27.334 -26 38.001c-6.66699 5.33301 -14.167 9.83301 -22.5 13.5s-17.166 6.83398 -26.499 9.50098c-22 4.66699 -40.333 7 -55 7z" />
    <glyph glyph-name="H" unicode="H" horiz-adv-x="840" 
d="M155 400l-145 -400h20l145 400h-20zM235 400l-145 -400h30l145 400h-30zM315 400l-145 -400h40l145 400h-40zM395 400l-145 -400h50l145 400h-50zM475 400l-145 -400h70l145 400h-70zM597 400l-145 -400h112l145 400h-112zM681 235l-25 -70h6h88l-60 -165h112l145 400
h-112l-60 -165h-8h-82h-4z" />
    <glyph glyph-name="I" unicode="I" horiz-adv-x="830" 
d="M155 400l-145 -400h20l145 400h-20zM235 400l-145 -400h30l145 400h-30zM315 400l-145 -400h40l145 400h-40zM395 400l-145 -400h50l145 400h-50zM475 400l-145 -400h70l145 400h-70zM596 400l-29 -81h112l-87 -238h-112l-29 -81h238h94l2 1l29 80h-112l87 238h112l29 80
l-2 1h-94h-238z" />
    <glyph glyph-name="J" unicode="J" horiz-adv-x="862" 
d="M155 400l-145 -400h20l145 400h-20zM235 400l-145 -400h30l145 400h-30zM315 400l-145 -400h40l145 400h-40zM395 400l-145 -400h50l145 400h-50zM475 400l-145 -400h70l145 400h-70zM852 364l-57.998 -161l-11.5 -26.5c-3 -7 -6 -13.167 -9 -18.5l-9 -15.5
c-3 -5 -6.5 -10.5 -10.5 -16.5c-12.667 -15.333 -26.667 -27.166 -42 -35.499s-29.333 -12.5 -42 -12.5h-10c-12.667 0 -23.167 4.16699 -31.5 12.5s-13.166 20.166 -14.499 35.499c-0.666992 6 -0.833984 11.667 -0.500977 17s1.16602 10.666 2.49902 15.999
c0.666992 4.66699 2.16699 10.667 4.5 18s4.83301 15.666 7.5 24.999h-105l-12.5 -42.5c-3.66699 -13 -6.5 -24.5 -8.5 -34.5c-3.33301 -25.333 -3.16602 -45.333 0.500977 -60s11.834 -27 24.501 -37c14 -10 30.667 -17.333 50 -22s39.666 -7 60.999 -7h-5
c21.333 0 43.666 2.33301 66.999 7s45.333 12 66 22c10.667 5.33301 20.167 11 28.5 17s16.166 12.833 23.499 20.5s14.5 16.334 21.5 26.001s14.5 20.834 22.5 33.501c5.33301 10 11 21.5 17 34.5s12 27.167 18 42.5l72 198h-104z" />
    <glyph glyph-name="K" unicode="K" horiz-adv-x="854" 
d="M155 400l-145 -400h20l145 400h-20zM235 400l-145 -400h30l145 400h-30zM315 400l-145 -400h40l145 400h-40zM395 400l-145 -400h50l145 400h-50zM475 400l-145 -400h70l145 400h-70zM593 400l-145 -400h108l73 200l69 -200h140l-72 226l197 174h-130l-186 -156l56 156
h-110z" />
    <glyph glyph-name="L" unicode="L" horiz-adv-x="828" 
d="M235 400l-145 -400h30l145 400h-30zM315 400l-145 -400h40l145 400h-40zM395 400l-145 -400h50l145 400h-50zM475 400l-145 -400h70l145 400h-70zM155 400l-145 -400h20l145 400h-20zM593 400l-145 -400h227h113l30 82h-148h-82l86 238l29 80h-110z" />
    <glyph glyph-name="M" unicode="M" horiz-adv-x="894" 
d="M155 400l-145 -400h20l145 400h-20zM235 400l-145 -400h30l145 400h-30zM315 400l-145 -400h40l145 400h-40zM395 400l-145 -400h50l145 400h-50zM475 400l-145 -400h70l145 400h-70zM653 0l143 150l-54 -150h112l145 400h-128l-134 -168l-26 168l-116 1l-147 -401h112
l54 150z" />
    <glyph glyph-name="N" unicode="N" horiz-adv-x="836" 
d="M155 400l-145 -400h20l145 400h-20zM235 400l-145 -400h30l145 400h-30zM315 400l-145 -400h40l145 400h-40zM395 400l-145 -400h50l145 400h-50zM475 400l-145 -400h70l145 400h-70zM593 400l-145 -400h112l64 176l64 -176h110l145 400h-112l-66 -181l-62 181h-110z" />
    <glyph glyph-name="O" unicode="O" horiz-adv-x="850" 
d="M155 400l-145 -400h20l145 400h-20zM235 400l-145 -400h30l145 400h-30zM315 400l-145 -400h40l145 400h-40zM395 400l-145 -400h50l145 400h-50zM475 400l-145 -400h70l145 400h-70zM741 318c4 0 8.1709 -0.50293 12.5039 -1.50293s8.5 -2.33301 12.5 -4
s8 -3.66699 12 -6s7 -5.16602 9 -8.49902c3.33301 -4.66699 5.66602 -10.667 6.99902 -18s1.33301 -17.666 0 -30.999c-4 -14 -7.5 -25.333 -10.5 -34l-7.5 -21.5l-5 -14l-4 -10.5c-3.33301 -7.33301 -7 -14.833 -11 -22.5s-9.33301 -15.834 -16 -24.501
c-12 -15.333 -25.667 -27.166 -41 -35.499s-29.333 -12.5 -42 -12.5h-8c-12.667 0 -23.334 4.16699 -32.001 12.5s-13.667 20.166 -15 35.499c-0.666992 12 0 23 2 33s5 19.667 9 29c1.33301 4.66699 4.16602 12.334 8.49902 23.001l16.5 40l12.5 18
c3.66699 5.33301 7 9.83301 10 13.5s6 7 9 10s6.5 5.83301 10.5 8.5c7.33301 5.33301 14.333 9.33301 21 12c7.33301 2.66699 14.666 4.83398 21.999 6.50098s13.333 2.5 18 2.5zM628.004 -5.00293l8.99707 -0.00195312c6.66699 0 14.667 0.5 24 1.5s20 2.83301 32 5.5
c23.333 4 46 11.333 68 22c10.667 5.33301 20.334 11 29.001 17s16.667 12.833 24 20.5s14.5 16.334 21.5 26.001s14.5 20.834 22.5 33.501c10.667 20.667 19.334 38.667 26.001 54s12 31.333 16 48l6 24l6 24c2.66699 23.333 2 42.333 -2 57s-12.333 27.334 -25 38.001
c-6.66699 5.33301 -14.167 9.83301 -22.5 13.5s-17.5 6.83398 -27.5 9.50098c-21.333 4.66699 -39.333 7 -54 7h-20c-12 0 -30.333 -2.33301 -55 -7c-11.333 -2.66699 -22.166 -5.83398 -32.499 -9.50098s-20.833 -8.16699 -31.5 -13.5
c-20 -10.667 -37.5 -23.334 -52.5 -38.001s-29.833 -33.667 -44.5 -57l-22 -48c-7.33301 -16.667 -13.666 -32.667 -18.999 -48c-5.33301 -16 -9.66602 -34 -12.999 -54c-2 -12.667 -2.83301 -23.834 -2.5 -33.501s1.16602 -18.167 2.49902 -25.5
c3.33301 -15.333 11.666 -28 24.999 -38c14.667 -11.333 31.667 -18.666 51 -21.999c11.333 -2.66699 21.333 -4.5 30 -5.5s16.667 -1.5 24 -1.5h7z" />
    <glyph glyph-name="P" unicode="P" horiz-adv-x="830" 
d="M155 400l-145 -400h20l145 400h-20zM235 400l-145 -400h30l145 400h-30zM315 400l-145 -400h40l145 400h-40zM395 400l-145 -400h50l145 400h-50zM475 400l-145 -400h70l145 400h-70zM595 400l-144.998 -400.001h105l116 320h83c10 0 16.667 -0.833008 20 -2.5
s5.66602 -4.5 6.99902 -8.5c1.33301 -2 2 -4.5 2 -7.5v-8.5c0 -3.33301 -0.166992 -6.16602 -0.5 -8.49902s-0.5 -3.83301 -0.5 -4.5c-4.66699 -11.333 -11 -20.666 -19 -27.999c-4 -4 -8.66699 -7.5 -14 -10.5s-11 -5.33301 -17 -7s-12 -2.83398 -18 -3.50098
s-11.667 -1 -17 -1h-24l-25 -70h40c36 1.33301 61.333 3.33301 76 6c13.333 2 26.333 6 39 12c5.33301 2.66699 10.833 5.66699 16.5 9s11.167 7.33301 16.5 12c18.667 14 34 28.833 46 44.5s21.333 34.167 28 55.5c4.66699 14 6.5 27 5.5 39s-4.5 22.667 -10.5 32
c-4.66699 8.66699 -14.334 16 -29.001 22c-13.333 5.33301 -27 8 -41 8h-240z" />
    <glyph glyph-name="Q" unicode="Q" horiz-adv-x="856" 
d="M155 400l-145 -400h20l145 400h-20zM235 400l-145 -400h30l145 400h-30zM315 400l-145 -400h40l145 400h-40zM395 400l-145 -400h50l145 400h-50zM475 400l-145 -400h70l145 400h-70zM749 322c3.33301 0 7.16699 -0.50293 11.5 -1.50293s8.66602 -2.33301 12.999 -4
s8.33301 -3.66699 12 -6s6.83398 -5.16602 9.50098 -8.49902c2.66699 -4.66699 4.66699 -10.667 6 -18s1.66602 -17.666 0.999023 -30.999c-3.33301 -8.66699 -6 -16.5 -8 -23.5l-5.5 -18.5c-1.66699 -5.33301 -3.16699 -9.83301 -4.5 -13.5l-3.5 -9.5l-3 -8l-3.5 -9l-9 -24
c-1.33301 11.333 -7.66602 21 -18.999 29c-36 -4.66699 -72 -20.667 -108 -48c12.667 -6.66699 19.334 -15.334 20.001 -26.001s0 -18.667 -2 -24l-8 -1c-8 0 -16 4.66699 -24 14c-8.66699 8 -13.334 19.667 -14.001 35c-1.33301 12 -0.833008 23 1.5 33
s5.16602 19.667 8.49902 29c2 4.66699 5 12.334 9 23.001s9.33301 24 16 40l12.5 18c3.66699 5.33301 7 9.83301 10 13.5s6.16699 7 9.5 10s6.66602 5.83301 9.99902 8.5c8 5.33301 15.333 9.33301 22 12s13.834 4.83398 21.501 6.50098s13.834 2.5 18.501 2.5z
M649.001 -1.00293c13.333 0.666992 20.666 0.334961 21.999 -0.998047c2 -2.66699 5 -9.33398 9 -20.001c4 -12 14.667 -22 32 -30c33.333 6 69 22 107 48c-12 6 -19.667 20.667 -23 44c3.33301 2 12 10.667 26 26c6.66699 7.33301 13.667 15.833 21 25.5
s14.666 20.834 21.999 33.501c10.667 20.667 19.334 38.667 26.001 54s12 31.333 16 48c2.66699 8 5 16 7 24l6 24c2.66699 23.333 2 42.333 -2 57s-12.667 27.334 -26 38.001c-6.66699 5.33301 -14.167 9.83301 -22.5 13.5s-17.166 6.83398 -26.499 9.50098
c-22 4.66699 -40.333 7 -55 7h-20c-12 0 -30 -2.33301 -54 -7c-12 -2.66699 -23.167 -5.83398 -33.5 -9.50098s-20.833 -8.16699 -31.5 -13.5c-19.333 -10.667 -36.666 -23.334 -51.999 -38.001s-30 -33.667 -44 -57c-8 -15.333 -15.667 -31.333 -23 -48
s-13.333 -32.667 -18 -48c-6 -16 -10.667 -34 -14 -54c-1.33301 -12.667 -2 -23.834 -2 -33.501s1 -18.167 3 -25.5c2.66699 -14.667 11 -27.334 25 -38.001c14 -10 31.167 -17.333 51.5 -22s41.166 -7 62.499 -7h11z" />
    <glyph glyph-name="R" unicode="R" horiz-adv-x="830" 
d="M155 400l-145 -400h20l145 400h-20zM235 400l-145 -400h30l145 400h-30zM315 400l-145 -400h40l145 400h-40zM395 400l-145 -400h50l145 400h-50zM475 400l-145 -400h70l145 400h-70zM595 400l-144.999 -399.997h105l116 320h83c10 0 16.667 -0.833008 20 -2.5
s5.66602 -4.5 6.99902 -8.5c1.33301 -2 2 -4.5 2 -7.5v-8.5c0 -3.33301 -0.166992 -6.16602 -0.5 -8.49902s-0.5 -3.83301 -0.5 -4.5c-2.66699 -7.33301 -7.16699 -14 -13.5 -20s-13.5 -11.333 -21.5 -16s-16.5 -8.16699 -25.5 -10.5s-17.167 -3.5 -24.5 -3.5h-24l-25 -70
c0.666992 -0.666992 2.5 -1.33398 5.5 -2.00098s6.83301 -1.33398 11.5 -2.00098l10.5 -2c3.66699 -0.666992 6.83398 -1.33398 9.50098 -2.00098c9.33301 -5.33301 15.833 -12.5 19.5 -21.5s5 -19.833 4 -32.5s-4 -27 -9 -43s-11.167 -34 -18.5 -54l120 -1
c6.66699 19.333 13.167 39.166 19.5 59.499s10.333 39.5 12 57.5s-0.333008 34.333 -6 49s-16.834 26 -33.501 34l36.5 17.5c11.667 5.66699 22.5 12.167 32.5 19.5s19.167 16 27.5 26s15.5 22.333 21.5 37c4 12.667 5.5 25.167 4.5 37.5s-4.33301 23 -10 32
s-13.5 16.333 -23.5 22s-22.333 8.5 -37 8.5h-250z" />
    <glyph glyph-name="S" unicode="S" horiz-adv-x="842" 
d="M155 400l-145 -400h20l145 400h-20zM235 400l-145 -400h30l145 400h-30zM315 400l-145 -400h40l145 400h-40zM395 400l-145 -400h50l145 400h-50zM475 400l-145 -400h70l145 400h-70zM493 124c-8 -23.333 -9.33008 -42.833 -3.99707 -58.5s14.833 -28.5 28.5 -38.5
s30.667 -17.167 51 -21.5s41.166 -6.5 62.499 -6.5c20.667 0 42.5 2.33301 65.5 7s45.167 12 66.5 22s40.5 23 57.5 39s29.5 35.333 37.5 58c10 26.667 10.333 48.334 1 65.001c-8.66699 16.667 -22.667 30 -42 40c-18.667 10 -40 17.333 -64 22l-33 8l-31 8
c-3.33301 0.666992 -5.33301 1.83398 -6 3.50098s-0.833984 3.83398 -0.500977 6.50098s1 5.16699 2 7.5s1.83301 4.83301 2.5 7.5c5.33301 13.333 13.333 22.333 24 27s22.667 7 36 7c14.667 0 26 -2.33301 34 -7s13.333 -15.334 16 -32.001h111l2 9
c5.33301 14.667 7.33301 27.5 6 38.5s-5 20.333 -11 28s-14 14 -24 19s-21 8.83301 -33 11.5s-24.333 4.5 -37 5.5s-24.667 1.5 -36 1.5c-20 0 -41 -1.66699 -63 -5s-43.167 -9.16602 -63.5 -17.499s-38.666 -19.833 -54.999 -34.5s-28.5 -33.334 -36.5 -56.001
c-6.66699 -18 -8.83398 -33 -6.50098 -45s7.66602 -22.333 15.999 -31s18.666 -15.667 30.999 -21s25.166 -10 38.499 -14c20 -4.66699 37.667 -9.66699 53 -15c16.667 -6 29.334 -12 38.001 -18c10 -6.66699 12.667 -16.334 8 -29.001
c-2.66699 -6.66699 -7 -12.334 -13 -17.001s-12.667 -8.5 -20 -11.5s-14.666 -5.16699 -21.999 -6.5s-14 -2 -20 -2c-18 0 -31.667 4.33301 -41 13s-14 19.667 -14 33h-112z" />
    <glyph glyph-name="T" unicode="T" horiz-adv-x="824" 
d="M155 400l-145 -400h20l145 400h-20zM235 400l-145 -400h30l145 400h-30zM315 400l-145 -400h40l145 400h-40zM395 400l-145 -400h50l145 400h-50zM475 400l-145 -400h70l145 400h-70zM596 400l-29 -81h112l-116 -319h110l116 319h112l29 80l-2 1h-94h-238z" />
    <glyph glyph-name="U" unicode="U" horiz-adv-x="862" 
d="M155 400l-145 -400h20l145 400h-20zM235 400l-145 -400h30l145 400h-30zM315 400l-145 -400h40l145 400h-40zM395 400l-145 -400h50l145 400h-50zM475 400l-145 -400h70l145 400h-70zM843 353l-54.0039 -149.999l-12 -27.5
c-3.33301 -7.66699 -5.66602 -13.834 -6.99902 -18.501c-4 -8.66699 -10 -19 -18 -31c-12.667 -15.333 -26.667 -27.166 -42 -35.499s-29.333 -12.5 -42 -12.5h-10c-12.667 0 -23.167 4.33301 -31.5 13s-13.166 20 -14.499 34c0.666992 6.66699 1.33398 12.667 2.00098 18
s1.33398 10.333 2.00098 15c1.33301 8 6 22 14 42l72 200h-109l-72 -198l-12.5 -42.5c-3.66699 -13 -6.5 -24.5 -8.5 -34.5c-3.33301 -25.333 -3.16602 -45.333 0.500977 -60s11.834 -27 24.501 -37c14 -10 30.667 -17.333 50 -22s39.666 -7 60.999 -7h-5
c21.333 0 43 1.66699 65 5s44 10.666 66 21.999s40.333 24.666 55 39.999c6.66699 7.33301 13.667 15.833 21 25.5s14.666 20.834 21.999 33.501c5.33301 10 11 21.5 17 34.5s12 27.167 18 42.5l72 198h-107z" />
    <glyph glyph-name="V" unicode="V" horiz-adv-x="858" 
d="M155 400l-145 -400h20l145 400h-20zM235 400l-145 -400h30l145 400h-30zM315 400l-145 -400h40l145 400h-40zM395 400l-145 -400h50l145 400h-50zM475 400l-145 -400h70l145 400h-70zM643 0h56l290 400h-128l-156 -229l-4 229h-118l4 -400h56z" />
    <glyph glyph-name="W" unicode="W" horiz-adv-x="896" 
d="M155 400l-145 -400h20l145 400h-20zM235 400l-145 -400h30l145 400h-30zM315 400l-145 -400h40l145 400h-40zM395 400l-145 -400h50l145 400h-50zM475 400l-145 -400h70l145 400h-70zM800 400l-147 -150l54 150h-112l-145 -400l110 -1l156 169l20 -169l120 1l145 400
h-112l-54 -150z" />
    <glyph glyph-name="X" unicode="X" horiz-adv-x="862" 
d="M155 400l-145 -400h20l145 400h-20zM235 400l-145 -400h30l145 400h-30zM315 400l-145 -400h40l145 400h-40zM395 400l-145 -400h50l145 400h-50zM475 400l-145 -400h70l145 400h-70zM678 101l30 -101h136l-59 202l204 198h-136l-102 -101l-32 101h-136l60 -198
l-205 -202h136z" />
    <glyph glyph-name="Y" unicode="Y" horiz-adv-x="856" 
d="M155 400l-145 -400h20l145 400h-20zM235 400l-145 -400h30l145 400h-30zM315 400l-145 -400h40l145 400h-40zM395 400l-145 -400h50l145 400h-50zM475 400l-145 -400h70l145 400h-70zM643 0h56l65 178l225 222h-136l-103 -104l-31 104h-136l69 -222l-65 -178h56z" />
    <glyph glyph-name="Z" unicode="Z" horiz-adv-x="824" 
d="M155 400l-145 -400h20l145 400h-20zM235 400l-145 -400h30l145 400h-30zM315 400l-145 -400h40l145 400h-40zM395 400l-145 -400h50l145 400h-50zM475 400l-145 -400h70l145 400h-70zM927 400h-237h-95l-29 -80h140h82l-309 -241l-29 -79h227h107l29 81h-220l306 240z
" />
    <glyph glyph-name="bracketleft" unicode="[" horiz-adv-x="440" 
d="M155 400l-145 -400h20l145 400h-20zM235 400l-145 -400h30l145 400h-30zM315 400l-145 -400h40l145 400h-40zM395 400l-145 -400h50l145 400h-50zM475 400l-145 -400h70l145 400h-70z" />
    <glyph glyph-name="backslash" unicode="\" horiz-adv-x="400" 
d="M271 395l-4 5h-112l93 -400h112z" />
    <glyph glyph-name="bracketright" unicode="]" horiz-adv-x="440" 
d="M545 400l-145 -400h-20l145 400h20zM465 400l-145 -400h-30l145 400h30zM385 400l-145 -400h-40l145 400h40zM305 400l-145 -400h-50l145 400h50zM225 400l-145 -400h-70l145 400h70z" />
    <glyph glyph-name="asciicircum" unicode="^" horiz-adv-x="266" 
d="M263 397l4 1l68 -91l-32 -90l-71 87l-135 -87l32 90z" />
    <glyph glyph-name="underscore" unicode="_" horiz-adv-x="228" 
d="M30 -77h174l11 30l9 25h-119h-115l-20 -55h60z" />
    <glyph glyph-name="grave" unicode="`" horiz-adv-x="152" 
d="M155 400l-35 -97c-8 -38 -8.33301 -63 -1 -75h38c19.333 12 40.333 37 63 75l35 97h-100z" />
    <glyph glyph-name="a" unicode="a" horiz-adv-x="438" 
d="M360 400h-56l-294 -400h118l170 229l-5 -112h-74l-11 -30l-14 -40h96l-2 -47h128v400h-56z" />
    <glyph glyph-name="b" unicode="b" 
d="M155 400l-145.005 -399.999h227c33.333 0 64.333 9.66699 93 29c29.333 19.333 49.333 44.666 60 75.999c18 49.333 6.33301 84.333 -35 105l30 17c9.33301 5.33301 17.833 11.333 25.5 18s14.834 13.834 21.501 21.501s12.334 18.167 17.001 31.5
c4.66699 11.333 6.83398 23.166 6.50098 35.499s-2.66602 23.333 -6.99902 33s-11.166 17.667 -20.499 24s-21.333 9.5 -36 9.5h-237zM220.995 205.001l-13.001 -36.002c2 0 5 -0.166992 9 -0.5s8.33301 -0.833008 13 -1.5s9.5 -1.5 14.5 -2.5s9.5 -2.16699 13.5 -3.5
c8.66699 -3.33301 15.334 -8.16602 20.001 -14.499s4.66699 -15.5 0 -27.5c0 -2.66699 -2.16699 -7.16699 -6.5 -13.5s-9.5 -11.5 -15.5 -15.5c-2.66699 -2.66699 -6 -4.66699 -10 -6s-7.5 -2.33301 -10.5 -3l-4.5 -1h-82l87 240h82l2.5 -1
c1.66699 -0.666992 3.5 -1.33398 5.5 -2.00098s4 -1.66699 6 -3s3.33301 -2.66602 4 -3.99902c0.666992 -2 1.16699 -4 1.5 -6s0.5 -4 0.5 -6c0.666992 -4.66699 0.833984 -8.33398 0.500977 -11.001s-0.833008 -4.66699 -1.5 -6
c-4.66699 -12 -11.334 -21.167 -20.001 -27.5s-18.667 -11.166 -30 -14.499c-5.33301 -2 -11 -3.66699 -17 -5s-11.5 -2.16602 -16.5 -2.49902s-9.5 -0.5 -13.5 -0.5h-9z" />
    <glyph glyph-name="c" unicode="c" horiz-adv-x="418" 
d="M350 400l-20 -0.000976562c-12 0 -30 -2.33301 -54 -7c-12 -2.66699 -23.167 -5.83398 -33.5 -9.50098s-20.833 -8.16699 -31.5 -13.5c-19.333 -10.667 -36.666 -23.334 -51.999 -38.001s-30 -33.667 -44 -57c-8.66699 -15.333 -16.5 -31.333 -23.5 -48
s-12.833 -32.667 -17.5 -48c-6 -16 -10.667 -34 -14 -54c-1.33301 -12.667 -2 -23.834 -2 -33.501s1 -18.167 3 -25.5c2.66699 -14.667 11 -27.334 25 -38.001c14 -10 31.167 -17.333 51.5 -22s41.166 -7 62.499 -7h-6c22 0 45.167 2.33301 69.5 7s47 12.167 68 22.5
s38.5 22.833 52.5 37.5c6.66699 7.33301 13.667 15.833 21 25.5s14.666 20.834 21.999 33.501l8 19h-113l-12 -18c-12.667 -15.333 -26.667 -27.166 -42 -35.499s-29.333 -12.5 -42 -12.5h-8c-12.667 0 -23.167 4.16699 -31.5 12.5s-13.166 20.166 -14.499 35.499
c-1.33301 12 -0.833008 23 1.5 33s5.16602 19.667 8.49902 29c2 4.66699 5 12.334 9 23.001s9.33301 24 16 40l12.5 18c3.66699 5.33301 7 9.83301 10 13.5s6.16699 7 9.5 10s6.66602 5.83301 9.99902 8.5c8 5.33301 15.333 9.33301 22 12s13.834 4.83398 21.501 6.50098
s13.834 2.5 18.501 2.5c7.33301 0 15.666 -1.66699 24.999 -5s16.333 -8.33301 21 -15c2.66699 -4.66699 4.66699 -10.667 6 -18s2 -17.333 2 -30h110l7 21c2.66699 23.333 2 42.333 -2 57s-12.667 27.334 -26 38.001c-6.66699 5.33301 -14.167 9.83301 -22.5 13.5
s-17.166 6.83398 -26.499 9.50098c-22 4.66699 -40.333 7 -55 7z" />
    <glyph glyph-name="d" unicode="d" 
d="M155 400l-145 -400h206c38.667 3.33301 74.334 16.333 107.001 39c33.333 22.667 54.666 44.667 63.999 66l32 87l22 62l13 34c4 24 1.33301 45.667 -8 65c-8.66699 19.333 -21 32 -37 38s-36.667 9 -62 9h-192zM318 215
c-8.66699 -25.333 -15.8301 -45.334 -21.4971 -60.001s-9.83398 -23.667 -12.501 -27s-4.83398 -6.5 -6.50098 -9.5s-2.83398 -5.16699 -3.50098 -6.5c-2 -2 -3.83301 -4 -5.5 -6s-3.16699 -3.66699 -4.5 -5l-13.5 -11c-5 -4 -11.5 -7.33301 -19.5 -10h-82l87 240h82
c0 -0.666992 1.66699 -1.5 5 -2.5s6.33301 -2.33301 9 -4s4.16699 -4.16699 4.5 -7.5s0.833008 -8.66602 1.5 -15.999c-0.666992 -4.66699 -1.16699 -9 -1.5 -13s-0.833008 -8 -1.5 -12l-5 -15.5c-2.66699 -8.33301 -6.66699 -19.833 -12 -34.5z" />
    <glyph glyph-name="e" unicode="e" horiz-adv-x="382" 
d="M155 400l-145 -400h227h107l29 80h-142h-82l87 240h82h140l29 80h-95h-237zM337 165h44l25 70h-170l-11 -32l-14 -38h126z" />
    <glyph glyph-name="f" unicode="f" horiz-adv-x="382" 
d="M155 400l-145 -400h110l29 80l87 240h82h140l29 80h-95h-237zM337 165h44l25 70h-170l-11 -32l-14 -38h126z" />
    <glyph glyph-name="g" unicode="g" horiz-adv-x="412" 
d="M350 400l-20 -0.00195312c-12 0 -30 -2.33301 -54 -7c-12 -2.66699 -23.167 -5.83398 -33.5 -9.50098s-20.833 -8.16699 -31.5 -13.5c-19.333 -10.667 -36.666 -23.334 -51.999 -38.001s-30 -33.667 -44 -57c-8.66699 -15.333 -16.5 -31.333 -23.5 -48
s-12.833 -32.667 -17.5 -48c-6 -16 -10.667 -34 -14 -54c-1.33301 -12.667 -2 -23.834 -2 -33.501s1 -18.167 3 -25.5c2.66699 -14.667 11 -27.334 25 -38.001c14 -10 31.167 -17.333 51.5 -22s41.166 -7 62.499 -7h-6c22 0 45.167 2.33301 69.5 7s47 12.167 68 22.5
s38.5 22.833 52.5 37.5c6.66699 7.33301 13.667 15.833 21 25.5s14.666 20.834 21.999 33.501l13 34c1.33301 16 -1.83398 28.333 -9.50098 37s-20.5 14.334 -38.5 17.001h-106l-23 -64h29c8.66699 -1.33301 15.334 -2.83301 20.001 -4.5s7.66699 -4 9 -7s1 -6.66699 -1 -11
s-5 -9.16602 -9 -14.499c-8 -11.333 -20.333 -20 -37 -26c-16 -6 -32 -8.66699 -48 -8h-8c-12.667 0 -23.167 4.16699 -31.5 12.5s-13.166 20.166 -14.499 35.499c-1.33301 12 -0.833008 23 1.5 33s5.16602 19.667 8.49902 29c2 4.66699 5 12.334 9 23.001s9.33301 24 16 40
l12.5 18c3.66699 5.33301 7 9.83301 10 13.5s6.16699 7 9.5 10s6.66602 5.83301 9.99902 8.5c8 5.33301 15.333 9.33301 22 12s13.834 4.83398 21.501 6.50098s13.834 2.5 18.501 2.5c7.33301 0 15.666 -1.66699 24.999 -5s16.333 -8.33301 21 -15
c2.66699 -4.66699 4.66699 -10.667 6 -18s2 -17.333 2 -30h110l7 21c2.66699 23.333 2 42.333 -2 57s-12.667 27.334 -26 38.001c-6.66699 5.33301 -14.167 9.83301 -22.5 13.5s-17.166 6.83398 -26.499 9.50098c-22 4.66699 -40.333 7 -55 7z" />
    <glyph glyph-name="h" unicode="h" horiz-adv-x="402" 
d="M155 400l-145 -400h112l72 198l73 202h-112zM505 400h-112l-60 -165h-18h-69h-5l-25 -70h10h82l-60 -165h112z" />
    <glyph glyph-name="i" unicode="i" horiz-adv-x="162" 
d="M155 400l-145 -400h110l145 400h-110z" />
    <glyph glyph-name="j" unicode="j" horiz-adv-x="420" 
d="M410 364l-57.998 -161l-11.5 -26.5c-3 -7 -6 -13.167 -9 -18.5l-9 -15.5c-3 -5 -6.5 -10.5 -10.5 -16.5c-12.667 -15.333 -26.667 -27.166 -42 -35.499s-29.333 -12.5 -42 -12.5h-10c-12.667 0 -23.167 4.16699 -31.5 12.5s-13.166 20.166 -14.499 35.499
c-0.666992 6 -0.833984 11.667 -0.500977 17s1.16602 10.666 2.49902 15.999c0.666992 4.66699 2.16699 10.667 4.5 18s4.83301 15.666 7.5 24.999h-105l-12.5 -42.5c-3.66699 -13 -6.5 -24.5 -8.5 -34.5c-3.33301 -25.333 -3.16602 -45.333 0.500977 -60
s11.834 -27 24.501 -37c14 -10 30.667 -17.333 50 -22s39.666 -7 60.999 -7h-5c21.333 0 43.666 2.33301 66.999 7s45.333 12 66 22c10.667 5.33301 20.167 11 28.5 17s16.166 12.833 23.499 20.5s14.5 16.334 21.5 26.001s14.5 20.834 22.5 33.501
c5.33301 10 11 21.5 17 34.5s12 27.167 18 42.5l72 198h-104z" />
    <glyph glyph-name="k" unicode="k" horiz-adv-x="422" 
d="M155 400l-145 -400h108l73 200l69 -200h140l-72 226l197 174h-130l-186 -156l56 156h-110z" />
    <glyph glyph-name="l" unicode="l" horiz-adv-x="390" 
d="M155 400l-145 -400h227h113l30 82h-148h-82l86 238l29 80h-110z" />
    <glyph glyph-name="m" unicode="m" horiz-adv-x="466" 
d="M215 0l-39 150l-54 -150h-112l147 401l116 -1l26 -168l134 168h128l-145 -400h-112l54 150z" />
    <glyph glyph-name="n" unicode="n" horiz-adv-x="400" 
d="M155 400l-145 -400h112l64 176l64 -176h110l145 400h-112l-66 -181l-62 181h-110z" />
    <glyph glyph-name="o" unicode="o" horiz-adv-x="416" 
d="M350 400l-20.0029 -0.000976562c-12 0 -30 -2.33301 -54 -7c-12 -2.66699 -23.167 -5.83398 -33.5 -9.50098s-20.833 -8.16699 -31.5 -13.5c-19.333 -10.667 -36.666 -23.334 -51.999 -38.001s-30 -33.667 -44 -57c-8 -15.333 -15.667 -31.333 -23 -48
s-13.333 -32.667 -18 -48c-6 -16 -10.667 -34 -14 -54c-1.33301 -12.667 -2 -23.834 -2 -33.501s1 -18.167 3 -25.5c2.66699 -14.667 11 -27.334 25 -38.001c14 -11.333 31 -18.666 51 -21.999c10.667 -2.66699 20.5 -4.5 29.5 -5.5s16.833 -1.5 23.5 -1.5h16
c6.66699 0 14.667 0.5 24 1.5s20.333 2.83301 33 5.5c23.333 4 46 11.333 68 22c10.667 5.33301 20.167 11 28.5 17s16.333 12.833 24 20.5s15 16.334 22 26.001s14.167 20.834 21.5 33.501c10.667 20.667 19.334 38.667 26.001 54s12 31.333 16 48c2.66699 8 5 16 7 24
l6 24c2.66699 23.333 2 42.333 -2 57s-12.667 27.334 -26 38.001c-6.66699 5.33301 -14.167 9.83301 -22.5 13.5s-17.166 6.83398 -26.499 9.50098c-22 4.66699 -40.333 7 -55 7zM310.997 321.999c3.33301 0 7.16797 -0.501953 11.501 -1.50195s8.66602 -2.33301 12.999 -4
s8.33301 -3.66699 12 -6s6.83398 -5.16602 9.50098 -8.49902c2.66699 -4.66699 4.66699 -10.667 6 -18s1.66602 -17.666 0.999023 -30.999c-4.66699 -14 -8.33398 -25.333 -11.001 -34s-5 -15.834 -7 -21.501l-5 -14c-1.33301 -3.66699 -3 -7.16699 -5 -10.5
c-3.33301 -7.33301 -7 -14.833 -11 -22.5s-9 -15.834 -15 -24.501c-12.667 -15.333 -26.667 -27.166 -42 -35.499s-29.333 -12.5 -42 -12.5h-8c-12.667 0 -23.167 4.16699 -31.5 12.5s-13.166 20.166 -14.499 35.499c-1.33301 12 -0.833008 23 1.5 33
s5.16602 19.667 8.49902 29c2 4.66699 5 12.334 9 23.001s9.33301 24 16 40l12.5 18c3.66699 5.33301 7 9.83301 10 13.5s6.16699 7 9.5 10s6.66602 5.83301 9.99902 8.5c8 5.33301 15.333 9.33301 22 12s13.834 4.83398 21.501 6.50098s13.834 2.5 18.501 2.5z" />
    <glyph glyph-name="p" unicode="p" horiz-adv-x="398" 
d="M155 400l-144.998 -400.001h105l116 320h83c10 0 16.667 -0.833008 20 -2.5s5.66602 -4.5 6.99902 -8.5c1.33301 -2 2 -4.5 2 -7.5v-8.5c0 -3.33301 -0.166992 -6.16602 -0.5 -8.49902s-0.5 -3.83301 -0.5 -4.5c-4.66699 -11.333 -11 -20.666 -19 -27.999
c-4 -4 -8.66699 -7.5 -14 -10.5s-11 -5.33301 -17 -7s-12 -2.83398 -18 -3.50098s-11.667 -1 -17 -1h-24l-25 -70h40c36 1.33301 61.333 3.33301 76 6c13.333 2 26.333 6 39 12c5.33301 2.66699 10.833 5.66699 16.5 9s11.167 7.33301 16.5 12c18.667 14 34 28.833 46 44.5
s21.333 34.167 28 55.5c4.66699 14 6.5 27 5.5 39s-4.5 22.667 -10.5 32c-4.66699 8.66699 -14.334 16 -29.001 22c-13.333 5.33301 -27 8 -41 8h-240z" />
    <glyph glyph-name="q" unicode="q" horiz-adv-x="416" 
d="M350 400l-20.001 0.00195312c-12 0 -30 -2.33301 -54 -7c-12 -2.66699 -23.167 -5.83398 -33.5 -9.50098s-20.833 -8.16699 -31.5 -13.5c-19.333 -10.667 -36.666 -23.334 -51.999 -38.001s-30 -33.667 -44 -57c-8 -15.333 -15.667 -31.333 -23 -48
s-13.333 -32.667 -18 -48c-6 -16 -10.667 -34 -14 -54c-1.33301 -12.667 -2 -23.834 -2 -33.501s1 -18.167 3 -25.5c2.66699 -14.667 11 -27.334 25 -38.001c14 -10 31.167 -17.333 51.5 -22s41.166 -7 62.499 -7h-6c8 0 14.667 0.166992 20 0.5s9 0.5 11 0.5
c4 0 6.66699 -0.666992 8 -2c2 -2.66699 5 -9.33398 9 -20.001c4 -12 14.667 -22 32 -30c33.333 6 69 22 107 48c-12 6 -19.667 20.667 -23 44c3.33301 2 12 10.667 26 26c6.66699 7.33301 13.667 15.833 21 25.5s14.666 20.834 21.999 33.501
c10.667 20.667 19.334 38.667 26.001 54s12 31.333 16 48c2.66699 8 5 16 7 24l6 24c2.66699 23.333 2 42.333 -2 57s-12.667 27.334 -26 38.001c-6.66699 5.33301 -14.167 9.83301 -22.5 13.5s-17.166 6.83398 -26.499 9.50098c-22 4.66699 -40.333 7 -55 7z
M310.999 322.002c3.33301 0 7.16504 -0.501953 11.498 -1.50195s8.66602 -2.33301 12.999 -4s8.33301 -3.66699 12 -6s6.83398 -5.16602 9.50098 -8.49902c2.66699 -4.66699 4.66699 -10.667 6 -18s1.66602 -17.666 0.999023 -30.999c-3.33301 -8.66699 -6 -16.5 -8 -23.5
l-5.5 -18.5c-1.66699 -5.33301 -3.16699 -9.83301 -4.5 -13.5l-3.5 -9.5l-3 -8l-3.5 -9l-9 -24c-1.33301 11.333 -7.66602 21 -18.999 29c-36 -4.66699 -72 -20.667 -108 -48c12.667 -6.66699 19.334 -15.334 20.001 -26.001s0 -18.667 -2 -24
c-12.667 0 -23.167 4.16699 -31.5 12.5s-13.166 20.166 -14.499 35.499c-1.33301 12 -0.833008 23 1.5 33s5.16602 19.667 8.49902 29c2 4.66699 5 12.334 9 23.001s9.33301 24 16 40l12.5 18c3.66699 5.33301 7 9.83301 10 13.5s6.16699 7 9.5 10
s6.66602 5.83301 9.99902 8.5c8 5.33301 15.333 9.33301 22 12s13.834 4.83398 21.501 6.50098s13.834 2.5 18.501 2.5z" />
    <glyph glyph-name="r" unicode="r" horiz-adv-x="398" 
d="M155 400l-145 -399.997h105l116 320h83c10 0 16.667 -0.833008 20 -2.5s5.66602 -4.5 6.99902 -8.5c1.33301 -2 2 -4.5 2 -7.5v-8.5c0 -3.33301 -0.166992 -6.16602 -0.5 -8.49902s-0.5 -3.83301 -0.5 -4.5c-2.66699 -7.33301 -7.16699 -14 -13.5 -20
s-13.5 -11.333 -21.5 -16s-16.5 -8.16699 -25.5 -10.5s-17.167 -3.5 -24.5 -3.5h-24l-25 -70c0.666992 -0.666992 2.5 -1.33398 5.5 -2.00098s6.83301 -1.33398 11.5 -2.00098l10.5 -2c3.66699 -0.666992 6.83398 -1.33398 9.50098 -2.00098
c9.33301 -5.33301 15.833 -12.5 19.5 -21.5s4.83398 -19.667 3.50098 -32s-4.5 -26.833 -9.5 -43.5s-11.167 -35 -18.5 -55h121c6.66699 19.333 13.167 39.166 19.5 59.499s10.333 39.5 12 57.5s-0.333008 34.333 -6 49s-16.834 26 -33.501 34l36.5 17.5
c11.667 5.66699 22.5 12.167 32.5 19.5s19.167 16 27.5 26s15.5 22.333 21.5 37c4 12.667 5.5 25.167 4.5 37.5s-4.33301 23 -10 32s-13.5 16.333 -23.5 22s-22.333 8.5 -37 8.5h-250z" />
    <glyph glyph-name="s" unicode="s" horiz-adv-x="398" 
d="M51 124c-8 -23.333 -9.33008 -42.833 -3.99707 -58.5s14.833 -28.5 28.5 -38.5s30.667 -17.167 51 -21.5s41.166 -6.5 62.499 -6.5c20.667 0 42.5 2.33301 65.5 7s45.167 12 66.5 22s40.5 23 57.5 39s29.5 35.333 37.5 58c10 26.667 10.333 48.334 1 65.001
c-8.66699 16.667 -22.667 30 -42 40c-18.667 10 -40 17.333 -64 22l-33 8l-31 8c-3.33301 0.666992 -5.33301 1.83398 -6 3.50098s-0.833984 3.83398 -0.500977 6.50098s1 5.16699 2 7.5s1.83301 4.83301 2.5 7.5c5.33301 13.333 13.333 22.333 24 27s22.667 7 36 7
c14.667 0 26 -2.33301 34 -7s13.333 -15.334 16 -32.001h111l2 9c5.33301 14.667 7.33301 27.5 6 38.5s-5 20.333 -11 28s-14 14 -24 19s-21 8.83301 -33 11.5s-24.333 4.5 -37 5.5s-24.667 1.5 -36 1.5c-20 0 -41 -1.66699 -63 -5s-43.167 -9.16602 -63.5 -17.499
s-38.666 -19.833 -54.999 -34.5s-28.5 -33.334 -36.5 -56.001c-6.66699 -18 -8.83398 -33 -6.50098 -45s7.66602 -22.333 15.999 -31s18.666 -15.667 30.999 -21s25.166 -10 38.499 -14c20 -4.66699 37.667 -9.66699 53 -15c16.667 -6 29.334 -12 38.001 -18
c10 -6.66699 12.667 -16.334 8 -29.001c-2.66699 -6.66699 -7 -12.334 -13 -17.001s-12.667 -8.5 -20 -11.5s-14.666 -5.16699 -21.999 -6.5s-14 -2 -20 -2c-18 0 -31.667 4.33301 -41 13s-15.333 19.667 -18 33h-108z" />
    <glyph glyph-name="t" unicode="t" horiz-adv-x="382" 
d="M154 400h238h94l2 -1l-29 -80h-112l-116 -319h-110l116 319h-112z" />
    <glyph glyph-name="u" unicode="u" horiz-adv-x="420" 
d="M403 353l-54.002 -150l-10.5 -27c-3 -7.33301 -5.83301 -13.333 -8.5 -18c-2 -4.66699 -4.5 -9.66699 -7.5 -15s-6.5 -11 -10.5 -17c-12.667 -15.333 -26.667 -27.166 -42 -35.499s-29.333 -12.5 -42 -12.5h-10c-12.667 0 -23.167 4.33301 -31.5 13
s-13.166 20 -14.499 34c0.666992 6.66699 1.33398 12.834 2.00098 18.501s2 11.167 4 16.5c3.33301 9.33301 7.33301 22.666 12 39.999l72 200h-109l-72 -198l-12.5 -42.5c-3.66699 -13 -6.5 -24.5 -8.5 -34.5c-3.33301 -25.333 -3.16602 -45.333 0.500977 -60
s11.834 -27 24.501 -37c14 -10 30.667 -17.333 50 -22s39.666 -7 60.999 -7h-5c21.333 0 43 1.66699 65 5s44 10.666 66 21.999s40.333 24.666 55 39.999c6.66699 7.33301 13.667 15.833 21 25.5s14.666 20.834 21.999 33.501c5.33301 10 11 21.5 17 34.5s12 27.167 18 42.5
l72 198h-107z" />
    <glyph glyph-name="v" unicode="v" horiz-adv-x="428" 
d="M215 0h-56l-4 400h118l4 -229l156 229h128l-290 -400h-56z" />
    <glyph glyph-name="w" unicode="w" horiz-adv-x="454" 
d="M360 400l-147 -150l54 150h-112l-145 -401h110l156 169l20 -169l120 1l145 400h-112l-54 -150z" />
    <glyph glyph-name="x" unicode="x" horiz-adv-x="438" 
d="M250 101l-104 -101h-136l205 202l-60 198h136l32 -101l102 101h136l-204 -198l59 -202h-136z" />
    <glyph glyph-name="y" unicode="y" horiz-adv-x="432" 
d="M215 0h-56l65 178l-69 222h136l31 -104l103 104h136l-225 -222l-65 -178h-56z" />
    <glyph glyph-name="z" unicode="z" horiz-adv-x="382" 
d="M487 400h-237h-95l-29 -80h140h82l-309 -241l-29 -79h227h107l29 81h-220l306 240z" />
    <glyph glyph-name="braceleft" unicode="{" horiz-adv-x="360" 
d="M155 400l-145 -400h30l145 400h-30zM235 400l-145 -400h40l145 400h-40zM315 400l-145 -400h50l145 400h-50zM395 400l-145 -400h70l145 400h-70z" />
    <glyph glyph-name="bar" unicode="|" horiz-adv-x="162" 
d="M177 460l-195 -535h110l195 535h-110z" />
    <glyph glyph-name="braceright" unicode="}" horiz-adv-x="360" 
d="M465 400l-145 -400h-30l145 400h30zM385 400l-145 -400h-40l145 400h40zM305 400l-145 -400h-50l145 400h50zM225 400l-145 -400h-70l145 400h70z" />
    <glyph glyph-name=".null" horiz-adv-x="0" 
 />
    <glyph glyph-name="nonmarkingreturn" horiz-adv-x="500" 
 />
    <glyph glyph-name="sf339" horiz-adv-x="210" 
 />
    <glyph glyph-name="sf343" horiz-adv-x="110" 
d="M10 80h90v-80h-90v80z" />
    <glyph glyph-name="sf347" horiz-adv-x="110" 
d="M10 80v-80h90v80h-90v0z" />
    <glyph glyph-name="sf341" horiz-adv-x="110" 
d="M10 80h90v-80h-90v80z" />
    <glyph glyph-name="sf335" horiz-adv-x="274" 
 />
    <glyph glyph-name="sf337" horiz-adv-x="274" 
 />
  </font>
</defs>
</svg>
